<mxfile host="65bd71144e">
    <diagram name="Page-1" id="pEubZVU73kbuG8EzN52T">
        <mxGraphModel dx="2140" dy="950" grid="1" gridSize="10" guides="1" tooltips="1" connect="1" arrows="1" fold="1" page="1" pageScale="1" pageWidth="850" pageHeight="1100" math="0" shadow="0">
            <root>
                <mxCell id="0"/>
                <mxCell id="1" parent="0"/>
                <mxCell id="6QvTNvJgFb12Zid0cQY_-1" value="User" style="swimlane;fontStyle=0;childLayout=stackLayout;horizontal=1;startSize=26;horizontalStack=0;resizeParent=1;resizeParentMax=0;resizeLast=0;collapsible=1;marginBottom=0;align=center;fontSize=14;" parent="1" vertex="1">
                    <mxGeometry x="380" y="240" width="200" height="326" as="geometry">
                        <mxRectangle x="380" y="240" width="70" height="30" as="alternateBounds"/>
                    </mxGeometry>
                </mxCell>
                <mxCell id="6QvTNvJgFb12Zid0cQY_-2" value="name&lt;span style=&quot;white-space: pre;&quot;&gt;&#x9;&lt;/span&gt;" style="text;strokeColor=none;fillColor=none;spacingLeft=4;spacingRight=4;overflow=hidden;rotatable=0;points=[[0,0.5],[1,0.5]];portConstraint=eastwest;fontSize=12;whiteSpace=wrap;html=1;" parent="6QvTNvJgFb12Zid0cQY_-1" vertex="1">
                    <mxGeometry y="26" width="200" height="30" as="geometry"/>
                </mxCell>
                <mxCell id="6QvTNvJgFb12Zid0cQY_-3" value="email" style="text;strokeColor=none;fillColor=none;spacingLeft=4;spacingRight=4;overflow=hidden;rotatable=0;points=[[0,0.5],[1,0.5]];portConstraint=eastwest;fontSize=12;whiteSpace=wrap;html=1;" parent="6QvTNvJgFb12Zid0cQY_-1" vertex="1">
                    <mxGeometry y="56" width="200" height="30" as="geometry"/>
                </mxCell>
                <mxCell id="6QvTNvJgFb12Zid0cQY_-4" value="password (hashed)" style="text;strokeColor=none;fillColor=none;spacingLeft=4;spacingRight=4;overflow=hidden;rotatable=0;points=[[0,0.5],[1,0.5]];portConstraint=eastwest;fontSize=12;whiteSpace=wrap;html=1;" parent="6QvTNvJgFb12Zid0cQY_-1" vertex="1">
                    <mxGeometry y="86" width="200" height="30" as="geometry"/>
                </mxCell>
                <mxCell id="6QvTNvJgFb12Zid0cQY_-8" value="role&amp;nbsp; (developer, employer, admin)" style="text;strokeColor=none;fillColor=none;spacingLeft=4;spacingRight=4;overflow=hidden;rotatable=0;points=[[0,0.5],[1,0.5]];portConstraint=eastwest;fontSize=12;whiteSpace=wrap;html=1;" parent="6QvTNvJgFb12Zid0cQY_-1" vertex="1">
                    <mxGeometry y="116" width="200" height="30" as="geometry"/>
                </mxCell>
                <mxCell id="6QvTNvJgFb12Zid0cQY_-9" value="location" style="text;strokeColor=none;fillColor=none;spacingLeft=4;spacingRight=4;overflow=hidden;rotatable=0;points=[[0,0.5],[1,0.5]];portConstraint=eastwest;fontSize=12;whiteSpace=wrap;html=1;" parent="6QvTNvJgFb12Zid0cQY_-1" vertex="1">
                    <mxGeometry y="146" width="200" height="30" as="geometry"/>
                </mxCell>
                <mxCell id="6QvTNvJgFb12Zid0cQY_-10" value="skills (Array of strings and for devs)" style="text;strokeColor=none;fillColor=none;spacingLeft=4;spacingRight=4;overflow=hidden;rotatable=0;points=[[0,0.5],[1,0.5]];portConstraint=eastwest;fontSize=12;whiteSpace=wrap;html=1;" parent="6QvTNvJgFb12Zid0cQY_-1" vertex="1">
                    <mxGeometry y="176" width="200" height="30" as="geometry"/>
                </mxCell>
                <mxCell id="6QvTNvJgFb12Zid0cQY_-11" value="company (for employers)" style="text;strokeColor=none;fillColor=none;spacingLeft=4;spacingRight=4;overflow=hidden;rotatable=0;points=[[0,0.5],[1,0.5]];portConstraint=eastwest;fontSize=12;whiteSpace=wrap;html=1;" parent="6QvTNvJgFb12Zid0cQY_-1" vertex="1">
                    <mxGeometry y="206" width="200" height="30" as="geometry"/>
                </mxCell>
                <mxCell id="6QvTNvJgFb12Zid0cQY_-12" value="avatar (image)" style="text;strokeColor=none;fillColor=none;spacingLeft=4;spacingRight=4;overflow=hidden;rotatable=0;points=[[0,0.5],[1,0.5]];portConstraint=eastwest;fontSize=12;whiteSpace=wrap;html=1;" parent="6QvTNvJgFb12Zid0cQY_-1" vertex="1">
                    <mxGeometry y="236" width="200" height="30" as="geometry"/>
                </mxCell>
                <mxCell id="6QvTNvJgFb12Zid0cQY_-13" value="resume (file buffer)" style="text;strokeColor=none;fillColor=none;spacingLeft=4;spacingRight=4;overflow=hidden;rotatable=0;points=[[0,0.5],[1,0.5]];portConstraint=eastwest;fontSize=12;whiteSpace=wrap;html=1;" parent="6QvTNvJgFb12Zid0cQY_-1" vertex="1">
                    <mxGeometry y="266" width="200" height="30" as="geometry"/>
                </mxCell>
                <mxCell id="6QvTNvJgFb12Zid0cQY_-14" value="OPTION = timestamps: true" style="text;strokeColor=none;fillColor=none;spacingLeft=4;spacingRight=4;overflow=hidden;rotatable=0;points=[[0,0.5],[1,0.5]];portConstraint=eastwest;fontSize=12;whiteSpace=wrap;html=1;" parent="6QvTNvJgFb12Zid0cQY_-1" vertex="1">
                    <mxGeometry y="296" width="200" height="30" as="geometry"/>
                </mxCell>
                <mxCell id="6QvTNvJgFb12Zid0cQY_-15" value="JobPost" style="swimlane;fontStyle=0;childLayout=stackLayout;horizontal=1;startSize=26;horizontalStack=0;resizeParent=1;resizeParentMax=0;resizeLast=0;collapsible=1;marginBottom=0;align=center;fontSize=14;" parent="1" vertex="1">
                    <mxGeometry x="680" y="240" width="280" height="370" as="geometry">
                        <mxRectangle x="380" y="240" width="70" height="30" as="alternateBounds"/>
                    </mxGeometry>
                </mxCell>
                <mxCell id="6QvTNvJgFb12Zid0cQY_-16" value="title" style="text;strokeColor=none;fillColor=none;spacingLeft=4;spacingRight=4;overflow=hidden;rotatable=0;points=[[0,0.5],[1,0.5]];portConstraint=eastwest;fontSize=12;whiteSpace=wrap;html=1;" parent="6QvTNvJgFb12Zid0cQY_-15" vertex="1">
                    <mxGeometry y="26" width="280" height="30" as="geometry"/>
                </mxCell>
                <mxCell id="6QvTNvJgFb12Zid0cQY_-17" value="description" style="text;strokeColor=none;fillColor=none;spacingLeft=4;spacingRight=4;overflow=hidden;rotatable=0;points=[[0,0.5],[1,0.5]];portConstraint=eastwest;fontSize=12;whiteSpace=wrap;html=1;" parent="6QvTNvJgFb12Zid0cQY_-15" vertex="1">
                    <mxGeometry y="56" width="280" height="30" as="geometry"/>
                </mxCell>
                <mxCell id="6QvTNvJgFb12Zid0cQY_-18" value="company" style="text;strokeColor=none;fillColor=none;spacingLeft=4;spacingRight=4;overflow=hidden;rotatable=0;points=[[0,0.5],[1,0.5]];portConstraint=eastwest;fontSize=12;whiteSpace=wrap;html=1;" parent="6QvTNvJgFb12Zid0cQY_-15" vertex="1">
                    <mxGeometry y="86" width="280" height="30" as="geometry"/>
                </mxCell>
                <mxCell id="6QvTNvJgFb12Zid0cQY_-19" value="location" style="text;strokeColor=none;fillColor=none;spacingLeft=4;spacingRight=4;overflow=hidden;rotatable=0;points=[[0,0.5],[1,0.5]];portConstraint=eastwest;fontSize=12;whiteSpace=wrap;html=1;" parent="6QvTNvJgFb12Zid0cQY_-15" vertex="1">
                    <mxGeometry y="116" width="280" height="30" as="geometry"/>
                </mxCell>
                <mxCell id="6QvTNvJgFb12Zid0cQY_-20" value="salaryRange: {&lt;div&gt;&lt;span style=&quot;white-space: pre;&quot;&gt;&#x9;&lt;/span&gt;min: Number,&lt;br&gt;&lt;/div&gt;&lt;div&gt;&lt;span style=&quot;white-space: pre;&quot;&gt;&#x9;&lt;/span&gt;mas: Number&lt;br&gt;&lt;/div&gt;&lt;div&gt;}&lt;/div&gt;" style="text;strokeColor=none;fillColor=none;spacingLeft=4;spacingRight=4;overflow=hidden;rotatable=0;points=[[0,0.5],[1,0.5]];portConstraint=eastwest;fontSize=12;whiteSpace=wrap;html=1;" parent="6QvTNvJgFb12Zid0cQY_-15" vertex="1">
                    <mxGeometry y="146" width="280" height="74" as="geometry"/>
                </mxCell>
                <mxCell id="6QvTNvJgFb12Zid0cQY_-21" value="requiredSkills (Array of skills)" style="text;strokeColor=none;fillColor=none;spacingLeft=4;spacingRight=4;overflow=hidden;rotatable=0;points=[[0,0.5],[1,0.5]];portConstraint=eastwest;fontSize=12;whiteSpace=wrap;html=1;" parent="6QvTNvJgFb12Zid0cQY_-15" vertex="1">
                    <mxGeometry y="220" width="280" height="30" as="geometry"/>
                </mxCell>
                <mxCell id="6QvTNvJgFb12Zid0cQY_-22" value="employmentType (Fulltime | Part-Time | Contract)" style="text;strokeColor=none;fillColor=none;spacingLeft=4;spacingRight=4;overflow=hidden;rotatable=0;points=[[0,0.5],[1,0.5]];portConstraint=eastwest;fontSize=12;whiteSpace=wrap;html=1;" parent="6QvTNvJgFb12Zid0cQY_-15" vertex="1">
                    <mxGeometry y="250" width="280" height="30" as="geometry"/>
                </mxCell>
                <mxCell id="6QvTNvJgFb12Zid0cQY_-23" value="avatar (image)" style="text;strokeColor=none;fillColor=none;spacingLeft=4;spacingRight=4;overflow=hidden;rotatable=0;points=[[0,0.5],[1,0.5]];portConstraint=eastwest;fontSize=12;whiteSpace=wrap;html=1;" parent="6QvTNvJgFb12Zid0cQY_-15" vertex="1">
                    <mxGeometry y="280" width="280" height="30" as="geometry"/>
                </mxCell>
                <mxCell id="6QvTNvJgFb12Zid0cQY_-24" value="resume (file buffer)" style="text;strokeColor=none;fillColor=none;spacingLeft=4;spacingRight=4;overflow=hidden;rotatable=0;points=[[0,0.5],[1,0.5]];portConstraint=eastwest;fontSize=12;whiteSpace=wrap;html=1;" parent="6QvTNvJgFb12Zid0cQY_-15" vertex="1">
                    <mxGeometry y="310" width="280" height="30" as="geometry"/>
                </mxCell>
                <mxCell id="6QvTNvJgFb12Zid0cQY_-25" value="OPTION = timestamps: true" style="text;strokeColor=none;fillColor=none;spacingLeft=4;spacingRight=4;overflow=hidden;rotatable=0;points=[[0,0.5],[1,0.5]];portConstraint=eastwest;fontSize=12;whiteSpace=wrap;html=1;" parent="6QvTNvJgFb12Zid0cQY_-15" vertex="1">
                    <mxGeometry y="340" width="280" height="30" as="geometry"/>
                </mxCell>
                <mxCell id="6QvTNvJgFb12Zid0cQY_-43" value="" style="edgeStyle=orthogonalEdgeStyle;rounded=0;orthogonalLoop=1;jettySize=auto;html=1;entryX=0.001;entryY=0.599;entryDx=0;entryDy=0;entryPerimeter=0;startArrow=ERmandOne;startFill=0;endArrow=ERzeroToMany;endFill=0;startSize=7;targetPerimeterSpacing=-3;endSize=15;jumpSize=5;sourcePerimeterSpacing=0;" parent="1" source="6QvTNvJgFb12Zid0cQY_-10" target="6QvTNvJgFb12Zid0cQY_-20" edge="1">
                    <mxGeometry relative="1" as="geometry"/>
                </mxCell>
                <mxCell id="rwNWdX2_nFvKPRr8WaOl-1" value="Application" style="swimlane;fontStyle=0;childLayout=stackLayout;horizontal=1;startSize=26;horizontalStack=0;resizeParent=1;resizeParentMax=0;resizeLast=0;collapsible=1;marginBottom=0;align=center;fontSize=14;" parent="1" vertex="1">
                    <mxGeometry x="1021" y="241" width="320" height="206" as="geometry">
                        <mxRectangle x="380" y="240" width="70" height="30" as="alternateBounds"/>
                    </mxGeometry>
                </mxCell>
                <mxCell id="rwNWdX2_nFvKPRr8WaOl-2" value="applicant (userId)" style="text;strokeColor=none;fillColor=none;spacingLeft=4;spacingRight=4;overflow=hidden;rotatable=0;points=[[0,0.5],[1,0.5]];portConstraint=eastwest;fontSize=12;whiteSpace=wrap;html=1;" parent="rwNWdX2_nFvKPRr8WaOl-1" vertex="1">
                    <mxGeometry y="26" width="320" height="30" as="geometry"/>
                </mxCell>
                <mxCell id="rwNWdX2_nFvKPRr8WaOl-3" value="job (jobPostId)" style="text;strokeColor=none;fillColor=none;spacingLeft=4;spacingRight=4;overflow=hidden;rotatable=0;points=[[0,0.5],[1,0.5]];portConstraint=eastwest;fontSize=12;whiteSpace=wrap;html=1;" parent="rwNWdX2_nFvKPRr8WaOl-1" vertex="1">
                    <mxGeometry y="56" width="320" height="30" as="geometry"/>
                </mxCell>
                <mxCell id="rwNWdX2_nFvKPRr8WaOl-4" value="message (cover letter or short pitch)" style="text;strokeColor=none;fillColor=none;spacingLeft=4;spacingRight=4;overflow=hidden;rotatable=0;points=[[0,0.5],[1,0.5]];portConstraint=eastwest;fontSize=12;whiteSpace=wrap;html=1;" parent="rwNWdX2_nFvKPRr8WaOl-1" vertex="1">
                    <mxGeometry y="86" width="320" height="30" as="geometry"/>
                </mxCell>
                <mxCell id="rwNWdX2_nFvKPRr8WaOl-5" value="status (applied, shortlisted, interview, rejected)" style="text;strokeColor=none;fillColor=none;spacingLeft=4;spacingRight=4;overflow=hidden;rotatable=0;points=[[0,0.5],[1,0.5]];portConstraint=eastwest;fontSize=12;whiteSpace=wrap;html=1;" parent="rwNWdX2_nFvKPRr8WaOl-1" vertex="1">
                    <mxGeometry y="116" width="320" height="30" as="geometry"/>
                </mxCell>
                <mxCell id="rwNWdX2_nFvKPRr8WaOl-10" value="resume (file buffer)" style="text;strokeColor=none;fillColor=none;spacingLeft=4;spacingRight=4;overflow=hidden;rotatable=0;points=[[0,0.5],[1,0.5]];portConstraint=eastwest;fontSize=12;whiteSpace=wrap;html=1;" parent="rwNWdX2_nFvKPRr8WaOl-1" vertex="1">
                    <mxGeometry y="146" width="320" height="30" as="geometry"/>
                </mxCell>
                <mxCell id="rwNWdX2_nFvKPRr8WaOl-11" value="OPTION = timestamps: true" style="text;strokeColor=none;fillColor=none;spacingLeft=4;spacingRight=4;overflow=hidden;rotatable=0;points=[[0,0.5],[1,0.5]];portConstraint=eastwest;fontSize=12;whiteSpace=wrap;html=1;" parent="rwNWdX2_nFvKPRr8WaOl-1" vertex="1">
                    <mxGeometry y="176" width="320" height="30" as="geometry"/>
                </mxCell>
                <mxCell id="rwNWdX2_nFvKPRr8WaOl-12" value="" style="edgeStyle=orthogonalEdgeStyle;rounded=0;orthogonalLoop=1;jettySize=auto;html=1;startArrow=ERmandOne;startFill=0;endArrow=ERzeroToMany;endFill=0;entryX=-0.006;entryY=1.2;entryDx=0;entryDy=0;entryPerimeter=0;" parent="1" source="6QvTNvJgFb12Zid0cQY_-20" target="rwNWdX2_nFvKPRr8WaOl-10" edge="1">
                    <mxGeometry relative="1" as="geometry">
                        <mxPoint x="1060" y="423" as="targetPoint"/>
                    </mxGeometry>
                </mxCell>
            </root>
        </mxGraphModel>
    </diagram>
</mxfile>